<?xml version="1.0" encoding="UTF-8"?>
<svg width="30px" height="30px" viewBox="0 0 30 30" version="1.1" xmlns="http://www.w3.org/2000/svg" xmlns:xlink="http://www.w3.org/1999/xlink">
    <!-- Generator: Sketch 53.2 (72643) - https://sketchapp.com -->
    <title>google</title>
    <desc>Created with Sketch.</desc>
    <g id="Registro" stroke="none" stroke-width="1" fill="none" fill-rule="evenodd">
        <g id="inicio-sesion-google" transform="translate(-76.000000, -531.000000)" fill="#FFFFFF">
            <g id="botón-google" transform="translate(61.000000, 522.000000)">
                <g id="Group-3" transform="translate(10.000000, 4.000000)">
                    <g id="google">
                        <g id="Google" transform="translate(5.000000, 5.000000)">
                            <path d="M6.27272727,15 C6.27272727,14.0473333 6.43431818,13.134 6.72272727,12.2773333 L1.67454545,8.50266667 C0.690681818,10.4586667 0.136363636,12.6626667 0.136363636,15 C0.136363636,17.3353333 0.69,19.538 1.6725,21.4926667 L6.71795455,17.7106667 C6.43227273,16.858 6.27272727,15.948 6.27272727,15" id="Fill-1"></path>
                            <path d="M15.1363636,6.33333333 C17.25,6.33333333 19.1590909,7.06666667 20.6590909,8.26666667 L25.0227273,4 C22.3636364,1.73333333 18.9545455,0.333333333 15.1363636,0.333333333 C9.20863636,0.333333333 4.11409091,3.65266667 1.67454545,8.50266667 L6.72272727,12.2773333 C7.88590909,8.82 11.2015909,6.33333333 15.1363636,6.33333333" id="Fill-2"></path>
                            <path d="M15.1363636,23.6666667 C11.2015909,23.6666667 7.88590909,21.18 6.72272727,17.7226667 L1.67454545,21.4966667 C4.11409091,26.3473333 9.20863636,29.6666667 15.1363636,29.6666667 C18.795,29.6666667 22.2879545,28.3946667 24.9095455,26.0113333 L20.1177273,22.384 C18.7656818,23.218 17.0631818,23.6666667 15.1363636,23.6666667" id="Fill-3"></path>
                            <path d="M29.4545455,15 C29.4545455,14.1333333 29.3181818,13.2 29.1136364,12.3333333 L15.1363636,12.3333333 L15.1363636,18 L23.1818182,18 C22.7795455,19.932 21.6845455,21.4173333 20.1177273,22.384 L24.9095455,26.0113333 C27.6634091,23.5086667 29.4545455,19.7806667 29.4545455,15" id="Fill-4"></path>
                        </g>
                    </g>
                </g>
            </g>
        </g>
    </g>
</svg>